<svg width="94" height="29" viewBox="0 0 94 29" fill="none" xmlns="http://www.w3.org/2000/svg">
<path d="M18.8304 3.61873H11.5095C10.1852 3.61873 9.39251 4.10016 9.13583 5.06302C9.0904 5.22046 9.06541 5.36648 9.06541 5.49654C9.07223 6.17191 9.63101 6.50732 10.7372 6.50732H13.9672C16.4227 6.50732 17.6515 7.47931 17.6515 9.42101C17.6515 9.94579 17.5652 10.5367 17.3949 11.1939L17.1496 12.1225C16.3068 15.2644 14.3284 16.8341 11.2074 16.8341H0L0.969915 13.2268H8.87688C10.2034 13.2268 10.9916 12.7454 11.2392 11.7825C11.2846 11.6251 11.3096 11.4814 11.3096 11.3467C11.3096 10.6736 10.7531 10.336 9.63782 10.336H6.41007C3.95235 10.336 2.72576 9.36397 2.72576 7.42227C2.72576 6.89976 2.81662 6.30425 2.99379 5.638L3.23911 4.70936C4.07274 1.57891 6.05118 0.0114083 9.1699 0.0114083L19.789 0L18.8304 3.61873Z" fill="#2D2A26"/>
<path d="M32.7023 16.8364H21.9651C19.5028 16.8364 18.274 15.8553 18.2808 13.8954C18.2808 13.3865 18.3671 12.7979 18.5397 12.1316L20.5273 4.70252C21.3609 1.56751 23.3393 0 26.4558 0H37.193L36.2322 3.60504H30.315C28.7568 3.60504 27.7642 4.38993 27.3439 5.95744L26.0356 10.8767C25.9493 11.2053 25.9061 11.5042 25.9061 11.7711C25.9061 12.7431 26.5217 13.2291 27.7528 13.2291H33.6722L32.7 16.8364H32.7023Z" fill="#2D2A26"/>
<path d="M54.3516 12.1316C53.5157 15.2689 51.5395 16.8364 48.4208 16.8364H38.7829C36.3275 16.8364 35.0986 15.8644 35.0986 13.9205C35.0986 13.3957 35.1827 12.7979 35.3553 12.1316L37.3428 4.70252C38.1787 1.56979 40.1549 0 43.2759 0H52.9137C55.3714 0 56.598 0.97199 56.598 2.91597C56.598 3.44076 56.5117 4.03627 56.3391 4.70024L54.3516 12.1293V12.1316ZM47.5326 10.8767L48.841 5.95744C48.9273 5.62887 48.9705 5.33226 48.9705 5.0653C48.9705 4.09331 48.3572 3.60732 47.1328 3.60732C45.5724 3.60732 44.582 4.39221 44.1618 5.95972L42.8511 10.879C42.7648 11.2076 42.7217 11.5065 42.7217 11.7734C42.7217 12.7454 43.3372 13.2314 44.5706 13.2314C46.1289 13.2314 47.1147 12.4465 47.5304 10.879L47.5326 10.8767Z" fill="#2D2A26"/>
<path d="M73.3933 16.8364L65.6249 16.825L62.7265 12.8549L61.6612 16.8364H54.5038L58.9945 0H72.0009C74.4563 0 75.6852 0.97199 75.6852 2.91597C75.6852 3.44076 75.5989 4.03627 75.4285 4.70024L75.0196 6.21755C74.1769 9.37537 72.2008 10.9452 69.0889 10.9201L73.3933 16.8341V16.8364ZM68.069 5.46459C68.1235 5.24327 68.153 5.04705 68.153 4.87592C68.153 4.03855 67.5102 3.62101 66.2245 3.62101H65.1933L64.2007 7.31959H65.2296C66.7901 7.31959 67.7373 6.70126 68.0712 5.46459H68.069Z" fill="#2D2A26"/>
<path d="M89.5093 16.8364H74.0929L78.5859 0H94L93.0414 3.61873H84.7847L83.9783 6.61456H91.0653L90.1067 10.2196H83.0197L82.2247 13.2291H90.4815L89.5116 16.8364H89.5093Z" fill="#2D2A26"/>
<path d="M44.766 18.1826L44.0255 21.8264H44.0482C44.5457 21.0712 45.2612 20.6765 46.013 20.6765C47.2373 20.6765 47.7007 21.6987 47.7007 22.6958C47.7007 24.4139 46.465 26.5495 44.2231 26.5495C43.2418 26.5495 42.5013 26.1434 42.5013 25.0984C42.5013 24.8314 42.5468 24.4937 42.5945 24.229L43.8074 18.1826H44.766ZM43.553 24.2519C43.5076 24.4367 43.4713 24.6694 43.4826 24.9592C43.4826 25.4931 43.7824 25.7943 44.3844 25.7943C45.829 25.7943 46.7058 24.0648 46.7058 22.8235C46.7058 22.1276 46.406 21.4773 45.6428 21.4773C44.8114 21.4773 43.9551 22.3353 43.678 23.6586L43.5508 24.2496L43.553 24.2519Z" fill="#2D2A26"/>
<path d="M49.502 20.8065L50.0562 23.8343C50.1834 24.4732 50.2516 24.8907 50.3106 25.3083H50.3333C50.4833 24.9478 50.6445 24.553 50.9353 23.9393L52.3572 20.8065H53.3748L51.2828 25.0778C50.6809 26.2962 50.1153 27.2819 49.3543 28.0257C48.7297 28.6646 48.0483 28.9316 47.7257 29L47.494 28.1763C47.7371 28.0828 48.1414 27.9322 48.523 27.631C48.8932 27.3412 49.2976 26.8872 49.5974 26.3419C49.6428 26.2483 49.6428 26.1799 49.6315 26.0863L48.5116 20.8065H49.5043H49.502Z" fill="#2D2A26"/>
<path d="M62.7424 24.5849V24.5233C62.7447 24.0897 62.6107 23.7292 62.3472 23.5216C62.2995 23.4828 62.2427 23.444 62.1836 23.4167C62.1223 23.387 62.0542 23.3642 61.986 23.3436C61.9724 23.3414 61.9633 23.3391 61.9519 23.3345C61.5294 23.2432 60.6845 23.209 60.0984 23.2341C59.9894 23.2364 59.8849 23.2432 59.794 23.2547C59.7145 23.2638 59.3738 23.3003 59.3239 23.3163C59.0763 23.3916 58.7015 23.549 58.6515 24.1399C58.6515 24.1536 58.656 24.2358 58.656 24.2563C58.6674 24.4183 58.7514 24.61 58.8832 24.7491C59.0104 24.8838 59.2035 24.9978 59.3965 25.0161C59.4147 25.0184 59.4579 25.0207 59.4783 25.0207C59.4783 25.0207 59.8349 25.0252 59.8667 25.0252C59.9099 25.0252 59.9485 25.0229 59.9826 25.0229C60.0734 25.0229 60.1461 25.0366 60.2211 25.1097C60.287 25.1713 60.2983 25.2899 60.2438 25.3675C60.2097 25.42 60.1325 25.4724 60.0462 25.5318C59.969 25.5842 59.8645 25.6481 59.76 25.696C59.6668 25.7394 59.5601 25.7805 59.4374 25.8147C59.342 25.8398 59.2398 25.8603 59.1285 25.874C59.0513 25.8831 58.9809 25.8854 58.89 25.8854H58.8786C58.0859 25.874 57.4499 25.4154 57.1251 24.772C57.0615 24.6465 57.0092 24.5027 56.9729 24.3635C56.9388 24.2266 56.9206 24.0738 56.9161 23.9255V23.857C56.9252 23.2661 57.2114 22.5861 57.8065 22.2142C57.9292 22.1366 58.0655 22.0568 58.2108 22.0043C58.3562 21.9518 58.5107 21.913 58.6765 21.8925C58.7673 21.8834 58.8559 21.8788 58.9445 21.8788C59.4238 21.8834 59.7395 22.0362 60.0053 22.2051C60.053 22.2347 60.1393 22.3032 60.2097 22.358C60.4073 22.5177 60.6845 22.6158 60.9389 22.5953C61.0161 22.5884 61.0933 22.5793 61.1592 22.561C61.5067 22.472 61.7293 22.2416 61.8565 22.002C61.8906 21.9381 61.9156 21.8651 61.936 21.799C61.9429 21.767 62.0019 21.5457 61.961 21.3266C61.8997 20.9935 61.752 20.8407 61.6067 20.6832C61.2546 20.3067 60.6958 20.1174 60.4687 20.0192C60.053 19.8504 59.576 19.7409 58.9627 19.7249C58.9422 19.7249 58.9218 19.7249 58.9059 19.7249C57.7952 19.7158 56.7798 20.163 56.0348 20.8931C55.2875 21.6324 54.8105 22.6523 54.7809 23.7794C54.7809 23.8 54.7809 23.8182 54.7809 23.8388C54.7582 25.4747 55.685 26.903 57.0433 27.6058C57.3091 27.7381 57.5907 27.8499 57.8837 27.9229C58.1768 28.0028 58.4857 28.0439 58.8014 28.053H58.9195V28.0553C59.9258 28.053 60.873 27.7062 61.5703 27.0993C62.2677 26.4923 62.7174 25.6253 62.7379 24.5803" fill="#2D2A26"/>
<path d="M71.8396 20.8955C71.8828 20.2521 72.4098 19.7433 73.0458 19.7456C73.675 19.7478 74.1951 20.2635 74.2338 20.9092H74.2383V20.9936L74.2133 25.7349L75.7079 25.7441H75.7193C76.3735 25.7555 76.905 26.2323 76.9005 26.91C76.8959 27.5899 76.3553 28.1444 75.6943 28.1398H75.683L73.0117 28.1238L73.0072 28.1193C73.0072 28.1193 73.0049 28.1238 73.0004 28.1238C72.3439 28.1193 71.8147 27.5717 71.8078 26.8986L71.801 26.8895L71.8351 20.9777V20.8932H71.8374L71.8396 20.8955Z" fill="#2D2A26"/>
<path d="M77.5319 19.7638L76.9027 19.7592H76.8822C76.228 19.7707 75.6988 20.316 75.6942 20.9936C75.6897 21.669 76.2121 22.1345 76.8663 22.1482H76.889L77.516 22.1527L77.491 26.8963C77.4864 27.5808 78.0225 28.1353 78.6858 28.1398C79.3445 28.1421 79.8851 27.5922 79.8896 26.91H79.8942L79.9192 22.1641L80.7437 22.171H80.7528C81.407 22.1618 82.0112 21.6462 82.0112 21.0233C82.0112 20.2909 81.5001 19.7615 80.8391 19.757C80.8005 19.757 80.7301 19.7547 80.6915 19.757L77.5341 19.7615L77.5319 19.7638Z" fill="#2D2A26"/>
<path d="M88.9256 21.774L86.988 24.2815L86.9721 26.8689V26.9465H86.9676C86.9244 27.5922 86.4565 28.1398 85.766 28.1398C85.0755 28.1398 84.6075 27.5808 84.5712 26.9328V26.8552L84.5871 24.2655L82.67 21.7511H82.6745C82.511 21.5367 82.436 21.2674 82.4383 20.9799C82.4428 20.2954 82.9857 19.7433 83.6467 19.7478C84.0397 19.7478 84.3895 19.9486 84.6053 20.2566L85.8001 21.8378L87.0244 20.2635C87.2447 19.9555 87.599 19.757 87.9966 19.7592C88.6576 19.7638 89.1913 20.3228 89.1891 21.005C89.1891 21.2971 89.0846 21.564 88.9256 21.774Z" fill="#2D2A26"/>
<path d="M67.2785 19.7227C64.9889 19.7113 63.1104 21.5823 63.0968 23.8868C63.0831 26.1935 64.9412 28.0805 67.2308 28.0942C69.5205 28.1056 71.3967 26.2369 71.4103 23.9324C71.4217 21.6279 69.5682 19.7364 67.2785 19.725M67.2513 25.614C66.3018 25.614 65.5318 24.8405 65.5318 23.8891C65.5318 22.9376 66.3018 22.1618 67.2513 22.1618C68.2007 22.1618 68.9708 22.933 68.9708 23.8891C68.9708 24.8451 68.2007 25.614 67.2513 25.614Z" fill="#2D2A26"/>
</svg>
